<svg xmlns="http://www.w3.org/2000/svg" viewBox="0 0 64 64" fill="none">
  <defs>
    <linearGradient id="cloudGrad" x1="0%" y1="0%" x2="100%" y2="100%">
      <stop offset="0%" stop-color="#0ea5e9"/>
      <stop offset="50%" stop-color="#0284c7"/>
      <stop offset="100%" stop-color="#0051c3"/>
    </linearGradient>
  </defs>

  <!-- Cloud Base Silhouette -->
  <path d="M47.5 44H18.5C13.25 44 9 39.75 9 34.5C9 29.58 12.75 25.54 17.55 25.07C19.06 18.25 25.12 13 32.5 13C40.64 13 47.33 19.14 48.24 27.12C52.61 27.88 56 31.7 56 36.3C56 40.55 52.2 44 47.5 44Z" fill="url(#cloudGrad)"/>

  <!-- Inner Mesh Topology Network Dots and Paths -->
  <path d="M22 36L32 26L42 36M32 26V42M22 36H42" stroke="#ffffff" stroke-width="2.5" stroke-linecap="round" stroke-linejoin="round" opacity="0.95"/>
  <circle cx="22" cy="36" r="3" fill="#ffffff"/>
  <circle cx="42" cy="36" r="3" fill="#ffffff"/>
  <circle cx="32" cy="26" r="3.5" fill="#f97316"/>
  <circle cx="32" cy="42" r="3" fill="#ffffff"/>
</svg>
